# xmcd CD database file
#
# Track frame offsets:
#	150
#	19875
#	36815
#	58107
#	78325
#	98365
#	118455
#	135375
#	158410
#	181585
#	203135
#	227510
#	250002
#
# Disc length: 3595 seconds
#
# Revision: 13
# Processed by: cddbd v1.5PL3 Copyright (c) Steve Scherf et al.
# Submitted via: CDex 1.51
#
DISCID=960e090d
DTITLE=TESLA - The Great Radio Controversy
DYEAR=1989
DGENRE=Hard Rock
TTITLE0=Hang Tough
TTITLE1=Lady Luck
TTITLE2=Heavens Trail (No Way Out)
TTITLE3=Be A Man
TTITLE4=Lazy Days, Crazy Nights
TTITLE5=Did It For The Money
TTITLE6=Yesterdaze Gone
TTITLE7=Makin Magic
TTITLE8=The Way It Is
TTITLE9=Flight To Nowhere
TTITLE10=Love Song
TTITLE11=Paradise
TTITLE12=Party's Over
EXTD=YEAR: 1989
EXTT0=
EXTT1=
EXTT2=
EXTT3=
EXTT4=
EXTT5=
EXTT6=
EXTT7=
EXTT8=
EXTT9=
EXTT10=
EXTT11=
EXTT12=
PLAYORDER=
